<mxfile host="app.diagrams.net" modified="2024-04-01T03:49:40.517Z" agent="Mozilla/5.0 (Windows NT 10.0; Win64; x64) AppleWebKit/537.36 (KHTML, like Gecko) Chrome/123.0.0.0 Safari/537.36" etag="03OmtEqsXhrjeofCotxa" version="24.2.1" type="device" pages="2">
  <diagram name="페이지-1" id="QyO4saYnb1dYPAZId3m8">
    <mxGraphModel dx="1425" dy="7007" grid="1" gridSize="10" guides="1" tooltips="1" connect="1" arrows="1" fold="1" page="0" pageScale="1" pageWidth="827" pageHeight="1169" math="0" shadow="0">
      <root>
        <mxCell id="0" />
        <mxCell id="1" parent="0" />
        <mxCell id="ZU1xsaeA-LcMyPrxRjW8-1" value="&amp;nbsp;리스트 페이지&lt;div&gt;시작&lt;/div&gt;" style="strokeWidth=2;html=1;shape=mxgraph.flowchart.terminator;whiteSpace=wrap;labelBackgroundColor=none;fillColor=#09555B;strokeColor=#BAC8D3;fontColor=#EEEEEE;rounded=1;" vertex="1" parent="1">
          <mxGeometry x="5" y="-6090" width="150" height="80" as="geometry" />
        </mxCell>
        <mxCell id="ZU1xsaeA-LcMyPrxRjW8-6" value="" style="edgeStyle=none;curved=1;rounded=1;orthogonalLoop=1;jettySize=auto;html=1;fontSize=12;startSize=8;endSize=8;labelBackgroundColor=none;fontColor=default;strokeColor=#0B4D6A;" edge="1" parent="1" source="ZU1xsaeA-LcMyPrxRjW8-2" target="ZU1xsaeA-LcMyPrxRjW8-4">
          <mxGeometry relative="1" as="geometry" />
        </mxCell>
        <mxCell id="qnD65TlnmopsnCo4QyBv-2" value="" style="edgeStyle=none;curved=1;rounded=1;orthogonalLoop=1;jettySize=auto;html=1;strokeColor=#0B4D6A;fontSize=12;startSize=8;endSize=8;" edge="1" parent="1" source="ZU1xsaeA-LcMyPrxRjW8-2" target="ZU1xsaeA-LcMyPrxRjW8-4">
          <mxGeometry relative="1" as="geometry" />
        </mxCell>
        <mxCell id="ZU1xsaeA-LcMyPrxRjW8-2" value="DB 접속" style="rounded=1;whiteSpace=wrap;html=1;labelBackgroundColor=none;fillColor=#09555B;strokeColor=#BAC8D3;fontColor=#EEEEEE;" vertex="1" parent="1">
          <mxGeometry x="20" y="-5970" width="120" height="60" as="geometry" />
        </mxCell>
        <mxCell id="ZU1xsaeA-LcMyPrxRjW8-3" value="" style="endArrow=classic;html=1;rounded=0;fontSize=12;startSize=8;endSize=8;curved=0;entryX=0.5;entryY=0;entryDx=0;entryDy=0;labelBackgroundColor=none;fontColor=default;strokeColor=#0B4D6A;" edge="1" parent="1" target="ZU1xsaeA-LcMyPrxRjW8-2">
          <mxGeometry width="50" height="50" relative="1" as="geometry">
            <mxPoint x="79.5" y="-6010" as="sourcePoint" />
            <mxPoint x="80" y="-5980" as="targetPoint" />
          </mxGeometry>
        </mxCell>
        <mxCell id="ZU1xsaeA-LcMyPrxRjW8-4" value="DB 접속&amp;nbsp;&lt;div&gt;예외 발생&lt;/div&gt;" style="rhombus;whiteSpace=wrap;html=1;labelBackgroundColor=none;fillColor=#09555B;strokeColor=#BAC8D3;fontColor=#EEEEEE;rounded=1;" vertex="1" parent="1">
          <mxGeometry x="40" y="-5860" width="80" height="80" as="geometry" />
        </mxCell>
        <mxCell id="ZU1xsaeA-LcMyPrxRjW8-5" value="" style="endArrow=classic;html=1;rounded=0;fontSize=12;startSize=8;endSize=8;curved=0;labelBackgroundColor=none;fontColor=default;strokeColor=#0B4D6A;" edge="1" parent="1" target="ZU1xsaeA-LcMyPrxRjW8-4">
          <mxGeometry width="50" height="50" relative="1" as="geometry">
            <mxPoint x="79.5" y="-5910" as="sourcePoint" />
            <mxPoint x="80" y="-5890" as="targetPoint" />
          </mxGeometry>
        </mxCell>
        <mxCell id="ZU1xsaeA-LcMyPrxRjW8-11" value="예외 메세지 출력" style="shape=document;whiteSpace=wrap;html=1;boundedLbl=1;labelBackgroundColor=none;fillColor=#09555B;strokeColor=#BAC8D3;fontColor=#EEEEEE;rounded=1;" vertex="1" parent="1">
          <mxGeometry x="390" y="-5020" width="120" height="80" as="geometry" />
        </mxCell>
        <mxCell id="ZU1xsaeA-LcMyPrxRjW8-13" value="&amp;nbsp;리스트 페이지&lt;div&gt;종료&lt;/div&gt;" style="strokeWidth=2;html=1;shape=mxgraph.flowchart.terminator;whiteSpace=wrap;labelBackgroundColor=none;fillColor=#09555B;strokeColor=#BAC8D3;fontColor=#EEEEEE;rounded=1;" vertex="1" parent="1">
          <mxGeometry x="40" y="-4880" width="100" height="60" as="geometry" />
        </mxCell>
        <mxCell id="ZU1xsaeA-LcMyPrxRjW8-15" value="" style="endArrow=classic;html=1;rounded=0;fontSize=12;startSize=8;endSize=8;curved=0;exitX=1;exitY=0.5;exitDx=0;exitDy=0;entryX=0.5;entryY=0;entryDx=0;entryDy=0;labelBackgroundColor=none;fontColor=default;strokeColor=#0B4D6A;" edge="1" parent="1" source="ZU1xsaeA-LcMyPrxRjW8-4" target="ZU1xsaeA-LcMyPrxRjW8-11">
          <mxGeometry width="50" height="50" relative="1" as="geometry">
            <mxPoint x="280" y="-5765" as="sourcePoint" />
            <mxPoint x="330" y="-5815" as="targetPoint" />
            <Array as="points">
              <mxPoint x="440" y="-5820" />
            </Array>
          </mxGeometry>
        </mxCell>
        <mxCell id="ZU1xsaeA-LcMyPrxRjW8-17" value="page 획득" style="shape=parallelogram;perimeter=parallelogramPerimeter;whiteSpace=wrap;html=1;fixedSize=1;labelBackgroundColor=none;fillColor=#09555B;strokeColor=#BAC8D3;fontColor=#EEEEEE;rounded=1;" vertex="1" parent="1">
          <mxGeometry x="-130" y="-5640" width="120" height="60" as="geometry" />
        </mxCell>
        <mxCell id="ZU1xsaeA-LcMyPrxRjW8-18" value="" style="endArrow=classic;html=1;rounded=1;fontSize=12;startSize=8;endSize=8;curved=1;labelBackgroundColor=none;fontColor=default;strokeColor=#0B4D6A;" edge="1" parent="1">
          <mxGeometry width="50" height="50" relative="1" as="geometry">
            <mxPoint x="79.5" y="-5780" as="sourcePoint" />
            <mxPoint x="80" y="-5740" as="targetPoint" />
          </mxGeometry>
        </mxCell>
        <mxCell id="ZU1xsaeA-LcMyPrxRjW8-20" value="page 파라미터 존재" style="rhombus;whiteSpace=wrap;html=1;labelBackgroundColor=none;fillColor=#09555B;strokeColor=#BAC8D3;fontColor=#EEEEEE;rounded=1;" vertex="1" parent="1">
          <mxGeometry x="20" y="-5740" width="120" height="70" as="geometry" />
        </mxCell>
        <mxCell id="ZU1xsaeA-LcMyPrxRjW8-23" value="page 획득" style="shape=parallelogram;perimeter=parallelogramPerimeter;whiteSpace=wrap;html=1;fixedSize=1;labelBackgroundColor=none;fillColor=#09555B;strokeColor=#BAC8D3;fontColor=#EEEEEE;rounded=1;" vertex="1" parent="1">
          <mxGeometry x="160" y="-5640" width="120" height="60" as="geometry" />
        </mxCell>
        <mxCell id="ZU1xsaeA-LcMyPrxRjW8-26" value="" style="endArrow=classic;html=1;rounded=0;fontSize=12;startSize=8;endSize=8;curved=0;entryX=0.417;entryY=0;entryDx=0;entryDy=0;exitX=0;exitY=0.5;exitDx=0;exitDy=0;labelBackgroundColor=none;fontColor=default;strokeColor=#0B4D6A;entryPerimeter=0;" edge="1" parent="1" source="ZU1xsaeA-LcMyPrxRjW8-20" target="ZU1xsaeA-LcMyPrxRjW8-17">
          <mxGeometry relative="1" as="geometry">
            <mxPoint x="-80" y="-5670" as="sourcePoint" />
            <mxPoint x="20" y="-5670" as="targetPoint" />
            <Array as="points">
              <mxPoint x="-80" y="-5705" />
            </Array>
          </mxGeometry>
        </mxCell>
        <mxCell id="ZU1xsaeA-LcMyPrxRjW8-27" value="YES" style="edgeLabel;resizable=0;html=1;fontSize=12;;align=center;verticalAlign=middle;labelBackgroundColor=none;fontColor=#003300;rounded=1;" connectable="0" vertex="1" parent="ZU1xsaeA-LcMyPrxRjW8-26">
          <mxGeometry relative="1" as="geometry">
            <mxPoint x="20" y="29" as="offset" />
          </mxGeometry>
        </mxCell>
        <mxCell id="ZU1xsaeA-LcMyPrxRjW8-31" value="" style="endArrow=classic;html=1;rounded=0;fontSize=12;startSize=8;endSize=8;curved=0;labelBackgroundColor=none;fontColor=default;strokeColor=#0B4D6A;entryX=0.583;entryY=0;entryDx=0;entryDy=0;entryPerimeter=0;" edge="1" parent="1" target="ZU1xsaeA-LcMyPrxRjW8-23">
          <mxGeometry relative="1" as="geometry">
            <mxPoint x="140" y="-5705.5" as="sourcePoint" />
            <mxPoint x="230" y="-5650" as="targetPoint" />
            <Array as="points">
              <mxPoint x="230" y="-5705" />
            </Array>
          </mxGeometry>
        </mxCell>
        <mxCell id="ZU1xsaeA-LcMyPrxRjW8-32" value="NO" style="edgeLabel;resizable=0;html=1;fontSize=12;;align=center;verticalAlign=middle;labelBackgroundColor=none;fontColor=#00331A;rounded=1;" connectable="0" vertex="1" parent="ZU1xsaeA-LcMyPrxRjW8-31">
          <mxGeometry relative="1" as="geometry">
            <mxPoint x="12" y="35" as="offset" />
          </mxGeometry>
        </mxCell>
        <mxCell id="ZU1xsaeA-LcMyPrxRjW8-35" value="" style="endArrow=classic;html=1;rounded=1;fontSize=12;startSize=8;endSize=8;curved=1;labelBackgroundColor=none;fontColor=default;strokeColor=#0B4D6A;" edge="1" parent="1">
          <mxGeometry relative="1" as="geometry">
            <mxPoint x="180" y="-5820.5" as="sourcePoint" />
            <mxPoint x="280" y="-5820.5" as="targetPoint" />
          </mxGeometry>
        </mxCell>
        <mxCell id="ZU1xsaeA-LcMyPrxRjW8-36" value="YES" style="edgeLabel;resizable=0;html=1;fontSize=12;;align=center;verticalAlign=middle;labelBackgroundColor=none;fontColor=#003300;rounded=1;" connectable="0" vertex="1" parent="ZU1xsaeA-LcMyPrxRjW8-35">
          <mxGeometry relative="1" as="geometry" />
        </mxCell>
        <mxCell id="ZU1xsaeA-LcMyPrxRjW8-37" value="DB에서 게시글 수&lt;div&gt;&lt;span style=&quot;background-color: initial;&quot;&gt;&amp;nbsp;획득&lt;/span&gt;&lt;/div&gt;" style="rounded=1;whiteSpace=wrap;html=1;labelBackgroundColor=none;fillColor=#09555B;strokeColor=#BAC8D3;fontColor=#EEEEEE;" vertex="1" parent="1">
          <mxGeometry x="20" y="-5490" width="120" height="60" as="geometry" />
        </mxCell>
        <mxCell id="ZU1xsaeA-LcMyPrxRjW8-39" value="" style="endArrow=classic;html=1;rounded=0;fontSize=12;startSize=8;endSize=8;curved=0;entryX=0.5;entryY=0;entryDx=0;entryDy=0;labelBackgroundColor=none;fontColor=default;strokeColor=#0B4D6A;exitX=0.5;exitY=1;exitDx=0;exitDy=0;" edge="1" parent="1" source="ZU1xsaeA-LcMyPrxRjW8-17" target="ZU1xsaeA-LcMyPrxRjW8-37">
          <mxGeometry width="50" height="50" relative="1" as="geometry">
            <mxPoint x="-40" y="-5580" as="sourcePoint" />
            <mxPoint x="10" y="-5630" as="targetPoint" />
            <Array as="points">
              <mxPoint x="-70" y="-5520" />
              <mxPoint x="80" y="-5520" />
            </Array>
          </mxGeometry>
        </mxCell>
        <mxCell id="ZU1xsaeA-LcMyPrxRjW8-40" value="" style="endArrow=none;html=1;rounded=0;fontSize=12;startSize=8;endSize=8;curved=0;labelBackgroundColor=none;fontColor=default;strokeColor=#0B4D6A;entryX=0.5;entryY=1;entryDx=0;entryDy=0;" edge="1" parent="1" target="ZU1xsaeA-LcMyPrxRjW8-23">
          <mxGeometry width="50" height="50" relative="1" as="geometry">
            <mxPoint x="80" y="-5520" as="sourcePoint" />
            <mxPoint x="190" y="-5580" as="targetPoint" />
            <Array as="points">
              <mxPoint x="220" y="-5520" />
            </Array>
          </mxGeometry>
        </mxCell>
        <mxCell id="ZU1xsaeA-LcMyPrxRjW8-41" value="페이지 관련 설정&lt;div&gt;셋팅&lt;/div&gt;" style="rounded=1;whiteSpace=wrap;html=1;labelBackgroundColor=none;fillColor=#09555B;strokeColor=#BAC8D3;fontColor=#EEEEEE;" vertex="1" parent="1">
          <mxGeometry x="25" y="-5290" width="120" height="60" as="geometry" />
        </mxCell>
        <mxCell id="ZU1xsaeA-LcMyPrxRjW8-42" value="" style="endArrow=classic;html=1;rounded=1;fontSize=12;startSize=8;endSize=8;curved=1;exitX=0.5;exitY=1;exitDx=0;exitDy=0;labelBackgroundColor=none;fontColor=default;strokeColor=#0B4D6A;" edge="1" parent="1" source="ZU1xsaeA-LcMyPrxRjW8-37">
          <mxGeometry width="50" height="50" relative="1" as="geometry">
            <mxPoint x="70" y="-5380" as="sourcePoint" />
            <mxPoint x="80" y="-5400" as="targetPoint" />
          </mxGeometry>
        </mxCell>
        <mxCell id="ZU1xsaeA-LcMyPrxRjW8-44" value="" style="endArrow=classic;html=1;rounded=1;fontSize=12;startSize=8;endSize=8;curved=1;labelBackgroundColor=none;fontColor=default;strokeColor=#0B4D6A;" edge="1" parent="1">
          <mxGeometry width="50" height="50" relative="1" as="geometry">
            <mxPoint x="84.41" y="-5230" as="sourcePoint" />
            <mxPoint x="84.41" y="-5190" as="targetPoint" />
          </mxGeometry>
        </mxCell>
        <mxCell id="ZU1xsaeA-LcMyPrxRjW8-45" value="DB에서 게시글 조회" style="rounded=1;whiteSpace=wrap;html=1;labelBackgroundColor=none;fillColor=#09555B;strokeColor=#BAC8D3;fontColor=#EEEEEE;" vertex="1" parent="1">
          <mxGeometry x="30" y="-5190" width="120" height="60" as="geometry" />
        </mxCell>
        <mxCell id="ZU1xsaeA-LcMyPrxRjW8-46" value="" style="endArrow=classic;html=1;rounded=1;fontSize=12;startSize=8;endSize=8;curved=1;exitX=0.5;exitY=1;exitDx=0;exitDy=0;labelBackgroundColor=none;fontColor=default;strokeColor=#0B4D6A;" edge="1" parent="1" source="ZU1xsaeA-LcMyPrxRjW8-45">
          <mxGeometry width="50" height="50" relative="1" as="geometry">
            <mxPoint x="80" y="-5240" as="sourcePoint" />
            <mxPoint x="90" y="-5100" as="targetPoint" />
          </mxGeometry>
        </mxCell>
        <mxCell id="ZU1xsaeA-LcMyPrxRjW8-47" value="화면에 출력" style="shape=document;whiteSpace=wrap;html=1;boundedLbl=1;labelBackgroundColor=none;fillColor=#09555B;strokeColor=#BAC8D3;fontColor=#EEEEEE;rounded=1;" vertex="1" parent="1">
          <mxGeometry x="30" y="-4990" width="120" height="80" as="geometry" />
        </mxCell>
        <mxCell id="ZU1xsaeA-LcMyPrxRjW8-48" value="" style="endArrow=classic;html=1;rounded=1;fontSize=12;startSize=8;endSize=8;curved=1;labelBackgroundColor=none;fontColor=default;strokeColor=#0B4D6A;entryX=0.5;entryY=0;entryDx=0;entryDy=0;entryPerimeter=0;" edge="1" parent="1" target="ZU1xsaeA-LcMyPrxRjW8-13">
          <mxGeometry width="50" height="50" relative="1" as="geometry">
            <mxPoint x="90" y="-4930" as="sourcePoint" />
            <mxPoint x="90" y="-4900" as="targetPoint" />
          </mxGeometry>
        </mxCell>
        <mxCell id="ZU1xsaeA-LcMyPrxRjW8-49" value="" style="endArrow=classic;html=1;rounded=0;fontSize=12;startSize=8;endSize=8;curved=0;exitX=0.517;exitY=0.888;exitDx=0;exitDy=0;exitPerimeter=0;entryX=1;entryY=0.3;entryDx=0;entryDy=0;entryPerimeter=0;labelBackgroundColor=none;fontColor=default;strokeColor=#0B4D6A;" edge="1" parent="1" source="ZU1xsaeA-LcMyPrxRjW8-11" target="ZU1xsaeA-LcMyPrxRjW8-13">
          <mxGeometry width="50" height="50" relative="1" as="geometry">
            <mxPoint x="370" y="-5135" as="sourcePoint" />
            <mxPoint x="420" y="-5185" as="targetPoint" />
            <Array as="points">
              <mxPoint x="450" y="-4862" />
            </Array>
          </mxGeometry>
        </mxCell>
        <mxCell id="ZU1xsaeA-LcMyPrxRjW8-50" value="게시글 획득&amp;nbsp;&lt;div&gt;예외 발생&lt;/div&gt;" style="rhombus;whiteSpace=wrap;html=1;labelBackgroundColor=none;fillColor=#09555B;strokeColor=#BAC8D3;fontColor=#EEEEEE;rounded=1;" vertex="1" parent="1">
          <mxGeometry x="15" y="-5400" width="130" height="80" as="geometry" />
        </mxCell>
        <mxCell id="ZU1xsaeA-LcMyPrxRjW8-51" value="" style="endArrow=classic;html=1;rounded=0;fontSize=12;startSize=8;endSize=8;curved=0;exitX=0.5;exitY=1;exitDx=0;exitDy=0;labelBackgroundColor=none;fontColor=default;strokeColor=#0B4D6A;" edge="1" parent="1" source="ZU1xsaeA-LcMyPrxRjW8-50">
          <mxGeometry relative="1" as="geometry">
            <mxPoint x="75" y="-5330" as="sourcePoint" />
            <mxPoint x="80" y="-5290" as="targetPoint" />
            <Array as="points" />
          </mxGeometry>
        </mxCell>
        <mxCell id="ZU1xsaeA-LcMyPrxRjW8-52" value="NO" style="edgeLabel;resizable=0;html=1;fontSize=12;;align=center;verticalAlign=middle;labelBackgroundColor=none;fontColor=#00331A;rounded=1;" connectable="0" vertex="1" parent="ZU1xsaeA-LcMyPrxRjW8-51">
          <mxGeometry relative="1" as="geometry">
            <mxPoint x="5" y="-5" as="offset" />
          </mxGeometry>
        </mxCell>
        <mxCell id="ZU1xsaeA-LcMyPrxRjW8-54" value="" style="endArrow=classic;html=1;rounded=0;fontSize=12;startSize=8;endSize=8;curved=0;labelBackgroundColor=none;fontColor=default;strokeColor=#0B4D6A;" edge="1" parent="1">
          <mxGeometry relative="1" as="geometry">
            <mxPoint x="145" y="-5360.5" as="sourcePoint" />
            <mxPoint x="450" y="-5360" as="targetPoint" />
          </mxGeometry>
        </mxCell>
        <mxCell id="ZU1xsaeA-LcMyPrxRjW8-55" value="YES" style="edgeLabel;resizable=0;html=1;fontSize=12;;align=center;verticalAlign=middle;labelBackgroundColor=none;fontColor=#EEEEEE;rounded=1;" connectable="0" vertex="1" parent="ZU1xsaeA-LcMyPrxRjW8-54">
          <mxGeometry relative="1" as="geometry" />
        </mxCell>
        <mxCell id="ZU1xsaeA-LcMyPrxRjW8-56" value="게시글 획득&amp;nbsp;&lt;div&gt;예외 발생&lt;/div&gt;" style="rhombus;whiteSpace=wrap;html=1;labelBackgroundColor=none;fillColor=#09555B;strokeColor=#BAC8D3;fontColor=#EEEEEE;rounded=1;" vertex="1" parent="1">
          <mxGeometry x="25" y="-5100" width="130" height="80" as="geometry" />
        </mxCell>
        <mxCell id="ZU1xsaeA-LcMyPrxRjW8-57" value="" style="endArrow=classic;html=1;rounded=1;fontSize=12;startSize=8;endSize=8;curved=1;exitX=0.5;exitY=1;exitDx=0;exitDy=0;entryX=0.5;entryY=0;entryDx=0;entryDy=0;labelBackgroundColor=none;fontColor=default;strokeColor=#0B4D6A;" edge="1" parent="1" source="ZU1xsaeA-LcMyPrxRjW8-56" target="ZU1xsaeA-LcMyPrxRjW8-47">
          <mxGeometry relative="1" as="geometry">
            <mxPoint x="110" y="-5100" as="sourcePoint" />
            <mxPoint x="210" y="-5100" as="targetPoint" />
          </mxGeometry>
        </mxCell>
        <mxCell id="ZU1xsaeA-LcMyPrxRjW8-58" value="NO" style="edgeLabel;resizable=0;html=1;fontSize=12;;align=center;verticalAlign=middle;labelBackgroundColor=none;fontColor=#EEEEEE;rounded=1;" connectable="0" vertex="1" parent="ZU1xsaeA-LcMyPrxRjW8-57">
          <mxGeometry relative="1" as="geometry" />
        </mxCell>
        <mxCell id="ZU1xsaeA-LcMyPrxRjW8-60" value="" style="endArrow=classic;html=1;rounded=0;fontSize=12;startSize=8;endSize=8;curved=0;labelBackgroundColor=none;fontColor=default;strokeColor=#0B4D6A;" edge="1" parent="1">
          <mxGeometry relative="1" as="geometry">
            <mxPoint x="150" y="-5060.5" as="sourcePoint" />
            <mxPoint x="450" y="-5060" as="targetPoint" />
          </mxGeometry>
        </mxCell>
        <mxCell id="ZU1xsaeA-LcMyPrxRjW8-61" value="YES" style="edgeLabel;resizable=0;html=1;fontSize=12;;align=center;verticalAlign=middle;labelBackgroundColor=none;fontColor=#00331A;rounded=1;" connectable="0" vertex="1" parent="ZU1xsaeA-LcMyPrxRjW8-60">
          <mxGeometry relative="1" as="geometry" />
        </mxCell>
        <mxCell id="ZU1xsaeA-LcMyPrxRjW8-63" value="DETAIL page&lt;div&gt;start&lt;/div&gt;" style="strokeWidth=2;html=1;shape=mxgraph.flowchart.terminator;whiteSpace=wrap;labelBackgroundColor=none;fillColor=#09555B;strokeColor=#BAC8D3;fontColor=#EEEEEE;rounded=1;" vertex="1" parent="1">
          <mxGeometry x="580" y="-6090" width="140" height="80" as="geometry" />
        </mxCell>
        <mxCell id="ZU1xsaeA-LcMyPrxRjW8-65" value="" style="endArrow=classic;html=1;rounded=0;fontSize=12;startSize=8;endSize=8;curved=0;exitX=0.5;exitY=1;exitDx=0;exitDy=0;exitPerimeter=0;labelBackgroundColor=none;fontColor=default;strokeColor=#0B4D6A;" edge="1" parent="1" source="ZU1xsaeA-LcMyPrxRjW8-63" target="ZU1xsaeA-LcMyPrxRjW8-66">
          <mxGeometry width="50" height="50" relative="1" as="geometry">
            <mxPoint x="590" y="-5940" as="sourcePoint" />
            <mxPoint x="600" y="-5970" as="targetPoint" />
          </mxGeometry>
        </mxCell>
        <mxCell id="ZU1xsaeA-LcMyPrxRjW8-66" value="DB 접속" style="rounded=1;whiteSpace=wrap;html=1;labelBackgroundColor=none;fillColor=#09555B;strokeColor=#BAC8D3;fontColor=#EEEEEE;" vertex="1" parent="1">
          <mxGeometry x="590" y="-5970" width="120" height="60" as="geometry" />
        </mxCell>
        <mxCell id="ZU1xsaeA-LcMyPrxRjW8-67" value="DB 접속&lt;div&gt;예외 발생&lt;/div&gt;" style="rhombus;whiteSpace=wrap;html=1;labelBackgroundColor=none;fillColor=#09555B;strokeColor=#BAC8D3;fontColor=#EEEEEE;rounded=1;" vertex="1" parent="1">
          <mxGeometry x="610" y="-5870" width="80" height="80" as="geometry" />
        </mxCell>
        <mxCell id="yMHw_kL0xDNuCvk6vN00-9" value="" style="edgeStyle=none;curved=1;rounded=1;orthogonalLoop=1;jettySize=auto;html=1;strokeColor=#0B4D6A;fontSize=12;startSize=8;endSize=8;" edge="1" parent="1" source="ZU1xsaeA-LcMyPrxRjW8-68" target="ZU1xsaeA-LcMyPrxRjW8-78">
          <mxGeometry relative="1" as="geometry" />
        </mxCell>
        <mxCell id="ZU1xsaeA-LcMyPrxRjW8-68" value="파라미터&lt;div&gt;획득&lt;/div&gt;" style="rhombus;whiteSpace=wrap;html=1;labelBackgroundColor=none;fillColor=#09555B;strokeColor=#BAC8D3;fontColor=#EEEEEE;rounded=1;" vertex="1" parent="1">
          <mxGeometry x="575" y="-5760" width="150" height="80" as="geometry" />
        </mxCell>
        <mxCell id="ZU1xsaeA-LcMyPrxRjW8-75" value="화면에 출력" style="shape=document;whiteSpace=wrap;html=1;boundedLbl=1;labelBackgroundColor=none;fillColor=#09555B;strokeColor=#BAC8D3;fontColor=#EEEEEE;rounded=1;" vertex="1" parent="1">
          <mxGeometry x="590" y="-5520" width="120" height="80" as="geometry" />
        </mxCell>
        <mxCell id="ZU1xsaeA-LcMyPrxRjW8-76" value="&amp;nbsp;DETAIL 페이지&lt;div&gt;종료&lt;/div&gt;" style="strokeWidth=2;html=1;shape=mxgraph.flowchart.terminator;whiteSpace=wrap;labelBackgroundColor=none;fillColor=#09555B;strokeColor=#BAC8D3;fontColor=#EEEEEE;rounded=1;" vertex="1" parent="1">
          <mxGeometry x="600" y="-5390" width="100" height="60" as="geometry" />
        </mxCell>
        <mxCell id="ZU1xsaeA-LcMyPrxRjW8-78" value="게시글 정보&lt;div&gt;획득&lt;/div&gt;" style="rhombus;whiteSpace=wrap;html=1;labelBackgroundColor=none;fillColor=#09555B;strokeColor=#BAC8D3;fontColor=#EEEEEE;rounded=1;" vertex="1" parent="1">
          <mxGeometry x="580" y="-5650" width="140" height="70" as="geometry" />
        </mxCell>
        <mxCell id="qnD65TlnmopsnCo4QyBv-1" style="edgeStyle=none;curved=1;rounded=1;orthogonalLoop=1;jettySize=auto;html=1;entryX=0.5;entryY=0;entryDx=0;entryDy=0;entryPerimeter=0;strokeColor=#0B4D6A;fontSize=12;startSize=8;endSize=8;" edge="1" parent="1" source="ZU1xsaeA-LcMyPrxRjW8-13" target="ZU1xsaeA-LcMyPrxRjW8-13">
          <mxGeometry relative="1" as="geometry" />
        </mxCell>
        <mxCell id="qnD65TlnmopsnCo4QyBv-3" value="" style="endArrow=classic;html=1;rounded=0;fontSize=12;startSize=8;endSize=8;curved=0;labelBackgroundColor=none;fontColor=default;strokeColor=#0B4D6A;" edge="1" parent="1">
          <mxGeometry width="50" height="50" relative="1" as="geometry">
            <mxPoint x="649.41" y="-5910" as="sourcePoint" />
            <mxPoint x="649.91" y="-5860" as="targetPoint" />
          </mxGeometry>
        </mxCell>
        <mxCell id="qnD65TlnmopsnCo4QyBv-4" value="수정 버튼 클릭" style="strokeWidth=2;html=1;shape=mxgraph.flowchart.terminator;whiteSpace=wrap;labelBackgroundColor=none;fillColor=#09555B;strokeColor=#BAC8D3;fontColor=#EEEEEE;rounded=1;" vertex="1" parent="1">
          <mxGeometry x="970" y="-6090" width="140" height="80" as="geometry" />
        </mxCell>
        <mxCell id="qnD65TlnmopsnCo4QyBv-5" value="수정 페이지로 이동" style="rounded=1;whiteSpace=wrap;html=1;labelBackgroundColor=none;fillColor=#09555B;strokeColor=#BAC8D3;fontColor=#EEEEEE;" vertex="1" parent="1">
          <mxGeometry x="980" y="-5970" width="120" height="60" as="geometry" />
        </mxCell>
        <mxCell id="qnD65TlnmopsnCo4QyBv-16" value="처리 종료" style="strokeWidth=2;html=1;shape=mxgraph.flowchart.terminator;whiteSpace=wrap;labelBackgroundColor=none;fillColor=#09555B;strokeColor=#BAC8D3;fontColor=#EEEEEE;rounded=1;" vertex="1" parent="1">
          <mxGeometry x="990" y="-5860" width="100" height="60" as="geometry" />
        </mxCell>
        <mxCell id="yMHw_kL0xDNuCvk6vN00-1" value="예외 메세지 출력" style="shape=document;whiteSpace=wrap;html=1;boundedLbl=1;labelBackgroundColor=none;fillColor=#09555B;strokeColor=#BAC8D3;fontColor=#EEEEEE;rounded=1;" vertex="1" parent="1">
          <mxGeometry x="790" y="-5410" width="120" height="80" as="geometry" />
        </mxCell>
        <mxCell id="yMHw_kL0xDNuCvk6vN00-2" value="" style="endArrow=classic;html=1;rounded=0;strokeColor=#0B4D6A;fontSize=12;startSize=8;endSize=8;curved=0;exitX=1;exitY=0.5;exitDx=0;exitDy=0;entryX=0.5;entryY=0;entryDx=0;entryDy=0;" edge="1" parent="1" target="yMHw_kL0xDNuCvk6vN00-1">
          <mxGeometry width="50" height="50" relative="1" as="geometry">
            <mxPoint x="710" y="-5940" as="sourcePoint" />
            <mxPoint x="910" y="-5180" as="targetPoint" />
            <Array as="points">
              <mxPoint x="850" y="-5940" />
            </Array>
          </mxGeometry>
        </mxCell>
        <mxCell id="yMHw_kL0xDNuCvk6vN00-4" value="" style="endArrow=classic;html=1;rounded=0;strokeColor=#0B4D6A;fontSize=12;startSize=8;endSize=8;curved=0;exitX=1;exitY=0.5;exitDx=0;exitDy=0;" edge="1" parent="1" source="ZU1xsaeA-LcMyPrxRjW8-68" target="yMHw_kL0xDNuCvk6vN00-1">
          <mxGeometry width="50" height="50" relative="1" as="geometry">
            <mxPoint x="700" y="-5630" as="sourcePoint" />
            <mxPoint x="750" y="-5680" as="targetPoint" />
            <Array as="points">
              <mxPoint x="850" y="-5720" />
            </Array>
          </mxGeometry>
        </mxCell>
        <mxCell id="yMHw_kL0xDNuCvk6vN00-5" value="" style="endArrow=classic;html=1;rounded=0;strokeColor=#0B4D6A;fontSize=12;startSize=8;endSize=8;curved=0;exitX=0.5;exitY=1;exitDx=0;exitDy=0;entryX=0.5;entryY=0;entryDx=0;entryDy=0;" edge="1" parent="1" source="ZU1xsaeA-LcMyPrxRjW8-67" target="ZU1xsaeA-LcMyPrxRjW8-68">
          <mxGeometry relative="1" as="geometry">
            <mxPoint x="670" y="-5620" as="sourcePoint" />
            <mxPoint x="770" y="-5620" as="targetPoint" />
          </mxGeometry>
        </mxCell>
        <mxCell id="yMHw_kL0xDNuCvk6vN00-6" value="NO" style="edgeLabel;resizable=0;html=1;fontSize=12;;align=center;verticalAlign=middle;rounded=1;strokeColor=#BAC8D3;fontColor=#003300;fillColor=#09555B;" connectable="0" vertex="1" parent="yMHw_kL0xDNuCvk6vN00-5">
          <mxGeometry relative="1" as="geometry" />
        </mxCell>
        <mxCell id="yMHw_kL0xDNuCvk6vN00-7" value="" style="endArrow=classic;html=1;rounded=0;strokeColor=#0B4D6A;fontSize=12;startSize=8;endSize=8;curved=0;exitX=0.5;exitY=1;exitDx=0;exitDy=0;entryX=0.5;entryY=0;entryDx=0;entryDy=0;" edge="1" parent="1">
          <mxGeometry relative="1" as="geometry">
            <mxPoint x="649.41" y="-5680" as="sourcePoint" />
            <mxPoint x="649.41" y="-5650" as="targetPoint" />
          </mxGeometry>
        </mxCell>
        <mxCell id="yMHw_kL0xDNuCvk6vN00-8" value="YES" style="edgeLabel;resizable=0;html=1;fontSize=12;;align=center;verticalAlign=middle;rounded=1;strokeColor=#BAC8D3;fontColor=#EEEEEE;fillColor=#09555B;" connectable="0" vertex="1" parent="yMHw_kL0xDNuCvk6vN00-7">
          <mxGeometry relative="1" as="geometry">
            <mxPoint x="1" y="-5" as="offset" />
          </mxGeometry>
        </mxCell>
        <mxCell id="yMHw_kL0xDNuCvk6vN00-10" value="" style="endArrow=classic;html=1;rounded=0;strokeColor=#0B4D6A;fontSize=12;startSize=8;endSize=8;curved=0;exitX=0.499;exitY=0.912;exitDx=0;exitDy=0;exitPerimeter=0;" edge="1" parent="1" source="ZU1xsaeA-LcMyPrxRjW8-75" target="ZU1xsaeA-LcMyPrxRjW8-76">
          <mxGeometry width="50" height="50" relative="1" as="geometry">
            <mxPoint x="800" y="-5550" as="sourcePoint" />
            <mxPoint x="850" y="-5600" as="targetPoint" />
          </mxGeometry>
        </mxCell>
        <mxCell id="yMHw_kL0xDNuCvk6vN00-11" value="" style="endArrow=classic;html=1;rounded=1;strokeColor=#0B4D6A;fontSize=12;startSize=8;endSize=8;curved=1;exitX=0.5;exitY=1;exitDx=0;exitDy=0;entryX=0.44;entryY=0.03;entryDx=0;entryDy=0;entryPerimeter=0;" edge="1" parent="1" source="ZU1xsaeA-LcMyPrxRjW8-78" target="ZU1xsaeA-LcMyPrxRjW8-75">
          <mxGeometry relative="1" as="geometry">
            <mxPoint x="780" y="-5580" as="sourcePoint" />
            <mxPoint x="880" y="-5580" as="targetPoint" />
          </mxGeometry>
        </mxCell>
        <mxCell id="yMHw_kL0xDNuCvk6vN00-12" value="YES" style="edgeLabel;resizable=0;html=1;fontSize=12;;align=center;verticalAlign=middle;rounded=1;strokeColor=#BAC8D3;fontColor=#00331A;fillColor=#09555B;" connectable="0" vertex="1" parent="yMHw_kL0xDNuCvk6vN00-11">
          <mxGeometry relative="1" as="geometry" />
        </mxCell>
        <mxCell id="yMHw_kL0xDNuCvk6vN00-13" style="edgeStyle=none;curved=1;rounded=1;orthogonalLoop=1;jettySize=auto;html=1;exitX=0.5;exitY=0;exitDx=0;exitDy=0;entryX=0.25;entryY=0;entryDx=0;entryDy=0;strokeColor=#0B4D6A;fontSize=12;startSize=8;endSize=8;" edge="1" parent="1" source="ZU1xsaeA-LcMyPrxRjW8-75" target="ZU1xsaeA-LcMyPrxRjW8-75">
          <mxGeometry relative="1" as="geometry">
            <Array as="points">
              <mxPoint x="640" y="-5520" />
            </Array>
          </mxGeometry>
        </mxCell>
        <mxCell id="yMHw_kL0xDNuCvk6vN00-14" value="" style="endArrow=classic;html=1;rounded=0;strokeColor=#0B4D6A;fontSize=12;startSize=8;endSize=8;curved=0;" edge="1" parent="1">
          <mxGeometry relative="1" as="geometry">
            <mxPoint x="720" y="-5615.59" as="sourcePoint" />
            <mxPoint x="850" y="-5408.823529411765" as="targetPoint" />
            <Array as="points">
              <mxPoint x="850" y="-5616" />
            </Array>
          </mxGeometry>
        </mxCell>
        <mxCell id="yMHw_kL0xDNuCvk6vN00-15" value="Label" style="edgeLabel;resizable=0;html=1;fontSize=12;;align=center;verticalAlign=middle;rounded=1;strokeColor=#BAC8D3;fontColor=#EEEEEE;fillColor=#09555B;" connectable="0" vertex="1" parent="yMHw_kL0xDNuCvk6vN00-14">
          <mxGeometry relative="1" as="geometry">
            <mxPoint x="-70" y="-37" as="offset" />
          </mxGeometry>
        </mxCell>
        <mxCell id="yMHw_kL0xDNuCvk6vN00-16" value="NO" style="edgeLabel;html=1;align=center;verticalAlign=middle;resizable=0;points=[];fontSize=12;rounded=1;strokeColor=#BAC8D3;fontColor=#003300;fillColor=#09555B;" vertex="1" connectable="0" parent="yMHw_kL0xDNuCvk6vN00-14">
          <mxGeometry x="-0.603" y="-5" relative="1" as="geometry">
            <mxPoint as="offset" />
          </mxGeometry>
        </mxCell>
        <mxCell id="yMHw_kL0xDNuCvk6vN00-17" value="" style="endArrow=classic;html=1;rounded=0;strokeColor=#0B4D6A;fontSize=12;startSize=8;endSize=8;curved=0;exitX=0.465;exitY=0.92;exitDx=0;exitDy=0;exitPerimeter=0;entryX=0.5;entryY=1;entryDx=0;entryDy=0;entryPerimeter=0;" edge="1" parent="1" source="yMHw_kL0xDNuCvk6vN00-1" target="ZU1xsaeA-LcMyPrxRjW8-76">
          <mxGeometry width="50" height="50" relative="1" as="geometry">
            <mxPoint x="800" y="-5510" as="sourcePoint" />
            <mxPoint x="660" y="-5290" as="targetPoint" />
            <Array as="points">
              <mxPoint x="750" y="-5290" />
            </Array>
          </mxGeometry>
        </mxCell>
        <mxCell id="yMHw_kL0xDNuCvk6vN00-18" value="" style="endArrow=classic;html=1;rounded=0;fontSize=12;startSize=8;endSize=8;curved=0;exitX=0.5;exitY=1;exitDx=0;exitDy=0;exitPerimeter=0;labelBackgroundColor=none;fontColor=default;strokeColor=#0B4D6A;" edge="1" parent="1">
          <mxGeometry width="50" height="50" relative="1" as="geometry">
            <mxPoint x="1039.41" y="-6010" as="sourcePoint" />
            <mxPoint x="1039.41" y="-5970" as="targetPoint" />
          </mxGeometry>
        </mxCell>
        <mxCell id="yMHw_kL0xDNuCvk6vN00-19" value="" style="endArrow=classic;html=1;rounded=0;fontSize=12;startSize=8;endSize=8;curved=0;labelBackgroundColor=none;fontColor=default;strokeColor=#0B4D6A;" edge="1" parent="1">
          <mxGeometry width="50" height="50" relative="1" as="geometry">
            <mxPoint x="1039.4099999999999" y="-5910" as="sourcePoint" />
            <mxPoint x="1039.9099999999999" y="-5860" as="targetPoint" />
          </mxGeometry>
        </mxCell>
        <mxCell id="yMHw_kL0xDNuCvk6vN00-20" value="Actor" style="shape=umlActor;verticalLabelPosition=bottom;verticalAlign=top;html=1;outlineConnect=0;rounded=1;strokeColor=#BAC8D3;fontColor=#EEEEEE;fillColor=#09555B;" vertex="1" parent="1">
          <mxGeometry x="1130" y="-5930" width="130" height="240" as="geometry" />
        </mxCell>
        <mxCell id="yMHw_kL0xDNuCvk6vN00-21" value="List" style="swimlane;fontStyle=0;childLayout=stackLayout;horizontal=1;startSize=30;horizontalStack=0;resizeParent=1;resizeParentMax=0;resizeLast=0;collapsible=1;marginBottom=0;whiteSpace=wrap;html=1;rounded=1;strokeColor=#BAC8D3;fontColor=#EEEEEE;fillColor=#09555B;" vertex="1" parent="1">
          <mxGeometry x="1210" y="-5800" width="360" height="120" as="geometry" />
        </mxCell>
        <mxCell id="yMHw_kL0xDNuCvk6vN00-22" value="Item 1" style="text;strokeColor=none;fillColor=none;align=left;verticalAlign=middle;spacingLeft=4;spacingRight=4;overflow=hidden;points=[[0,0.5],[1,0.5]];portConstraint=eastwest;rotatable=0;whiteSpace=wrap;html=1;fontColor=#EEEEEE;" vertex="1" parent="yMHw_kL0xDNuCvk6vN00-21">
          <mxGeometry y="30" width="360" height="30" as="geometry" />
        </mxCell>
        <mxCell id="yMHw_kL0xDNuCvk6vN00-23" value="Item 2" style="text;strokeColor=none;fillColor=none;align=left;verticalAlign=middle;spacingLeft=4;spacingRight=4;overflow=hidden;points=[[0,0.5],[1,0.5]];portConstraint=eastwest;rotatable=0;whiteSpace=wrap;html=1;fontColor=#EEEEEE;" vertex="1" parent="yMHw_kL0xDNuCvk6vN00-21">
          <mxGeometry y="60" width="360" height="30" as="geometry" />
        </mxCell>
        <mxCell id="yMHw_kL0xDNuCvk6vN00-24" value="Item 3" style="text;strokeColor=none;fillColor=none;align=left;verticalAlign=middle;spacingLeft=4;spacingRight=4;overflow=hidden;points=[[0,0.5],[1,0.5]];portConstraint=eastwest;rotatable=0;whiteSpace=wrap;html=1;fontColor=#EEEEEE;" vertex="1" parent="yMHw_kL0xDNuCvk6vN00-21">
          <mxGeometry y="90" width="360" height="30" as="geometry" />
        </mxCell>
      </root>
    </mxGraphModel>
  </diagram>
  <diagram id="PyZh7LpOG_liwdGa004m" name="페이지-2">
    <mxGraphModel dx="1076" dy="516" grid="1" gridSize="10" guides="1" tooltips="1" connect="1" arrows="1" fold="1" page="0" pageScale="1" pageWidth="827" pageHeight="1169" math="0" shadow="0">
      <root>
        <mxCell id="0" />
        <mxCell id="1" parent="0" />
      </root>
    </mxGraphModel>
  </diagram>
</mxfile>
